<svg width="32" height="32" viewBox="0 0 32 32" fill="none" xmlns="http://www.w3.org/2000/svg">
<path d="M16 0C14.4219 0 13.1429 1.27908 13.1429 2.85714V13.1429H2.85714C1.27908 13.1429 0 14.4219 0 16C0 17.5781 1.27908 18.8571 2.85714 18.8571H13.1429V29.1429C13.1429 30.7209 14.4219 32 16 32C17.5781 32 18.8571 30.7209 18.8571 29.1429V18.8571H29.1429C30.7209 18.8571 32 17.5781 32 16C32 14.4219 30.7209 13.1429 29.1429 13.1429H18.8571V2.85714C18.8571 1.27908 17.5781 0 16 0V0Z" fill="#444444"/>
</svg>
