<svg width="32" height="33" viewBox="0 0 32 33" fill="none" xmlns="http://www.w3.org/2000/svg">
<path d="M31.1824 0.817247C30.0936 -0.272407 28.3252 -0.272407 27.2364 0.818545L15.9997 12.0608L4.76404 0.818545C3.67308 -0.272848 1.90641 -0.272416 0.818059 0.817247C-0.272038 1.90734 -0.272902 3.67355 0.816762 4.76323L12.0546 16.0077L0.816762 27.2511C-0.272893 28.3408 -0.272029 30.1074 0.818059 31.1971C1.36268 31.7421 2.07639 32.0138 2.79055 32.0138C3.50516 32.0138 4.21976 31.7417 4.76437 31.1958L16 19.9535L27.2356 31.1958C27.7807 31.7417 28.4944 32.0138 29.2095 32.0138C29.9232 32.0138 30.6378 31.7417 31.1819 31.1971C32.272 30.1074 32.2729 28.3408 31.1832 27.2511L19.9432 16.0066L31.1821 4.76212C32.2718 3.6729 32.2714 1.90626 31.1813 0.815696L31.1824 0.817247Z" fill="#444444"/>
</svg>
