<svg width="32" height="32" viewBox="0 0 32 32" fill="none" xmlns="http://www.w3.org/2000/svg">
<path d="M30.4003 14.4027C29.976 14.4027 29.5689 14.5711 29.2689 14.8711C28.9689 15.1711 28.8004 15.5783 28.8004 16.0026C28.8194 18.9994 27.7927 21.9092 25.8973 24.2306C24.0019 26.5519 21.3562 28.1398 18.416 28.7205C15.476 29.3012 12.4254 28.8384 9.78963 27.412C7.15385 25.9854 5.09804 23.6845 3.97627 20.9054C2.85477 18.1263 2.73716 15.043 3.64412 12.1864C4.55085 9.32994 6.42555 6.87923 8.94511 5.25646C11.4646 3.63349 14.4711 2.93974 17.4467 3.29495C20.4226 3.65013 23.1814 5.03203 25.2482 7.20248H21.4081C20.8365 7.20248 20.3083 7.5073 20.0225 8.00231C19.7367 8.49732 19.7367 9.10749 20.0225 9.60252C20.3083 10.0975 20.8365 10.4023 21.4081 10.4023H28.6563C29.0805 10.4023 29.4877 10.2339 29.7877 9.93386C30.0877 9.63385 30.2562 9.22674 30.2562 8.80241V1.60231C30.2562 1.03069 29.9514 0.502473 29.4564 0.216663C28.9614 -0.0691469 28.3514 -0.0691469 27.8562 0.216663C27.3611 0.502473 27.0563 1.03069 27.0563 1.60231V4.43442C24.3917 1.88729 20.9292 0.338311 17.2546 0.0492779C13.5798 -0.239741 9.91801 0.748922 6.8878 2.84813C3.85799 4.94761 1.64578 8.02857 0.625216 11.5705C-0.395074 15.1127 -0.161242 18.8982 1.28736 22.2877C2.73596 25.6775 5.31065 28.4627 8.57593 30.1736C11.8411 31.8838 15.5971 32.4145 19.2081 31.6754C22.8194 30.9362 26.0648 28.973 28.3954 26.117C30.7263 23.2613 31.9995 19.6886 32 16.0026C32 15.5783 31.8315 15.1711 31.5315 14.8711C31.2315 14.5711 30.8244 14.4027 30.4001 14.4027H30.4003Z" fill="#444444"/>
</svg>
